<svg width="30" height="30" viewBox="0 0 30 30" fill="none" xmlns="http://www.w3.org/2000/svg">
<circle cx="15" cy="15" r="15" fill="#F3F7F4"/>
<path d="M16.7778 7H13.2222C11.572 7 9.98934 7.66379 8.82245 8.84533C7.65555 10.0269 7 11.6294 7 13.3004V16.0005C6.99951 17.1932 7.33337 18.3616 7.96279 19.3697C8.5922 20.3779 9.4913 21.1844 10.5556 21.6956V24.704C10.5566 24.7627 10.5746 24.8198 10.6072 24.8683C10.6399 24.9168 10.6858 24.9546 10.7394 24.9771C10.7929 24.9995 10.8518 25.0057 10.9087 24.9947C10.9657 24.9838 11.0183 24.9563 11.06 24.9155L13.6422 22.3009H16.7778C18.428 22.3009 20.0107 21.6371 21.1776 20.4555C22.3444 19.274 23 17.6715 23 16.0005V13.3004C23 11.6294 22.3444 10.0269 21.1776 8.84533C20.0107 7.66379 18.428 7 16.7778 7ZM19.1067 18.8087L18.2178 19.7087C17.2711 20.647 14.8 19.576 12.6222 17.3236C10.4444 15.0712 9.48889 12.5443 10.4 11.606L11.2889 10.706C11.4631 10.5476 11.6896 10.4612 11.9237 10.4637C12.1578 10.4662 12.3825 10.5574 12.5533 10.7195L13.8511 12.0695C13.9542 12.1772 14.0285 12.3097 14.0671 12.4545C14.1057 12.5993 14.1073 12.7516 14.0717 12.8972C14.0362 13.0428 13.9646 13.1768 13.8638 13.2867C13.7631 13.3966 13.6363 13.4787 13.4956 13.5254C13.2869 13.5902 13.1109 13.7339 13.0042 13.9266C12.8974 14.1194 12.8681 14.3464 12.9222 14.5604C13.1444 15.5595 14.3978 16.8106 15.3311 17.0558C15.5415 17.1066 15.763 17.0779 15.954 16.9752C16.1451 16.8725 16.2926 16.7027 16.3689 16.4978C16.4182 16.3548 16.503 16.2272 16.6151 16.127C16.7273 16.0269 16.863 15.9577 17.0092 15.926C17.1554 15.8944 17.3072 15.9014 17.45 15.9463C17.5928 15.9913 17.7217 16.0727 17.8244 16.1828L19.12 17.5328C19.2756 17.7087 19.3605 17.9372 19.3581 18.1734C19.3556 18.4095 19.2659 18.6361 19.1067 18.8087ZM15.8089 11.2752C15.7205 11.2748 15.6322 11.2801 15.5444 11.291C15.5058 11.2953 15.4667 11.2918 15.4293 11.2808C15.392 11.2698 15.3571 11.2514 15.3268 11.2267C15.2965 11.2021 15.2712 11.1716 15.2525 11.1371C15.2338 11.1026 15.222 11.0646 15.2178 11.0255C15.2135 10.9863 15.217 10.9467 15.2279 10.9089C15.2387 10.8711 15.2569 10.8358 15.2812 10.8051C15.3056 10.7744 15.3357 10.7488 15.3698 10.7299C15.4039 10.7109 15.4413 10.699 15.48 10.6947C15.5892 10.682 15.699 10.676 15.8089 10.6767C16.5953 10.6761 17.3498 10.9917 17.9065 11.5541C18.4632 12.1166 18.7766 12.8798 18.7778 13.6761C18.7785 13.7874 18.7726 13.8986 18.76 14.0091C18.7558 14.0483 18.744 14.0862 18.7253 14.1208C18.7065 14.1553 18.6813 14.1858 18.651 14.2104C18.6206 14.2351 18.5858 14.2534 18.5485 14.2645C18.5111 14.2755 18.472 14.2789 18.4333 14.2747C18.3947 14.2704 18.3572 14.2584 18.3231 14.2395C18.289 14.2205 18.2589 14.195 18.2346 14.1643C18.2102 14.1336 18.1921 14.0983 18.1812 14.0605C18.1703 14.0227 18.1669 13.983 18.1711 13.9439C18.1808 13.855 18.186 13.7656 18.1867 13.6761C18.1855 13.0386 17.9344 12.4276 17.4885 11.9774C17.0427 11.5272 16.4385 11.2746 15.8089 11.2752ZM17.5867 13.6761C17.5802 13.7513 17.5462 13.8213 17.4913 13.8723C17.4363 13.9233 17.3645 13.9516 17.29 13.9516C17.2155 13.9516 17.1437 13.9233 17.0887 13.8723C17.0338 13.8213 16.9998 13.7513 16.9933 13.6761C16.9933 13.358 16.8685 13.053 16.6464 12.8281C16.4243 12.6032 16.123 12.4768 15.8089 12.4768C15.7678 12.4804 15.7264 12.4753 15.6873 12.4619C15.6482 12.4484 15.6123 12.4269 15.5819 12.3986C15.5515 12.3704 15.5272 12.336 15.5106 12.2978C15.494 12.2595 15.4854 12.2182 15.4854 12.1764C15.4854 12.1346 15.494 12.0933 15.5106 12.055C15.5272 12.0168 15.5515 11.9824 15.5819 11.9542C15.6123 11.926 15.6482 11.9044 15.6873 11.891C15.7264 11.8775 15.7678 11.8724 15.8089 11.876C16.2804 11.876 16.7326 12.0657 17.066 12.4033C17.3994 12.7408 17.5867 13.1987 17.5867 13.6761ZM19.8467 14.6504C19.8401 14.6913 19.8253 14.7304 19.8031 14.7653C19.7809 14.8001 19.7519 14.83 19.7179 14.8529C19.6838 14.8759 19.6454 14.8915 19.6051 14.8988C19.5648 14.9061 19.5235 14.9049 19.4837 14.8953C19.4439 14.8857 19.4064 14.8679 19.3737 14.843C19.341 14.818 19.3137 14.7866 19.2936 14.7505C19.2734 14.7144 19.2608 14.6745 19.2566 14.6333C19.2523 14.5921 19.2565 14.5504 19.2689 14.5109C19.3331 14.239 19.3651 13.9602 19.3644 13.6806C19.3644 12.7258 18.9898 11.8101 18.323 11.1349C17.6562 10.4597 16.7519 10.0804 15.8089 10.0804C15.7178 10.0804 15.6244 10.0804 15.5333 10.0804C15.4945 10.0834 15.4555 10.0786 15.4185 10.0663C15.3816 10.0539 15.3473 10.0344 15.3178 10.0087C15.2582 9.95678 15.2215 9.88303 15.2156 9.80366C15.2097 9.72429 15.2351 9.6458 15.2864 9.58545C15.3377 9.52511 15.4105 9.48786 15.4889 9.48189C15.5956 9.47289 15.7022 9.46839 15.8089 9.46839C16.9099 9.47018 17.9651 9.91428 18.743 10.7032C19.5209 11.4921 19.9578 12.5613 19.9578 13.6761C19.9579 14.0041 19.9206 14.3311 19.8467 14.6504Z" fill="#105720"/>
</svg>
