<svg width="30" height="30" viewBox="0 0 30 30" fill="none" xmlns="http://www.w3.org/2000/svg">
<circle cx="15" cy="15" r="15" fill="#F3F7F4"/>
<path d="M14.996 7C13.5223 7.00056 12.0775 7.40825 10.8208 8.17809C9.56419 8.94793 8.54461 10.05 7.8746 11.3627C7.20458 12.6754 6.91016 14.1476 7.02384 15.6171C7.13751 17.0865 7.65485 18.496 8.51877 19.69L7.5189 22.662L10.5965 21.678C11.6377 22.3649 12.825 22.7987 14.0637 22.9449C15.3023 23.0911 16.558 22.9455 17.7304 22.5199C18.9028 22.0942 19.9595 21.4003 20.816 20.4934C21.6724 19.5866 22.305 18.492 22.6631 17.2972C23.0213 16.1023 23.0951 14.8402 22.8786 13.6117C22.6622 12.3832 22.1615 11.2223 21.4165 10.2219C20.6716 9.22137 19.703 8.40898 18.5882 7.84957C17.4734 7.29015 16.2432 6.99922 14.996 7ZM19.2474 18.314L18.3955 19.166C17.4997 20.062 15.124 19.076 13.0182 16.966C10.9125 14.856 9.96859 12.486 10.8205 11.6L11.6724 10.748C11.8373 10.5963 12.0532 10.5122 12.2773 10.5122C12.5014 10.5122 12.7173 10.5963 12.8822 10.748L14.1381 12C14.2405 12.0996 14.3156 12.2238 14.3562 12.3607C14.3969 12.4976 14.4017 12.6427 14.3702 12.782C14.3386 12.9213 14.2719 13.0502 14.1763 13.1563C14.0807 13.2624 13.9594 13.3422 13.8241 13.388C13.6245 13.4518 13.4572 13.5901 13.357 13.7741C13.2568 13.9581 13.2315 14.1737 13.2862 14.376C13.5101 15.316 14.72 16.482 15.6179 16.706C15.8191 16.7482 16.0287 16.7165 16.2083 16.6165C16.388 16.5166 16.5255 16.3552 16.5958 16.162C16.641 16.0247 16.7211 15.9016 16.8282 15.8045C16.9352 15.7074 17.0657 15.6397 17.2067 15.6081C17.3477 15.5765 17.4945 15.5819 17.6328 15.624C17.771 15.666 17.896 15.7432 17.9956 15.848L19.2494 17.104C19.4008 17.2692 19.4846 17.4853 19.4842 17.7094C19.4838 17.9335 19.3993 18.1493 19.2474 18.314Z" fill="#105720"/>
</svg>
